<svg xmlns="http://www.w3.org/2000/svg" width="241" height="54" viewBox="0 0 241 54">
  <defs>
    <style>
      .cls-1 {
        fill: #fff;
        fill-rule: evenodd;
      }
    </style>
  </defs>
  <path id="Logo" class="cls-1" d="M237.919,101.4l28.619-.252-20.555-35.19-16.792,29.93-4.52.04,19.305-33.566-3.229-5.527L215,101.6l17.439-.153L246.08,77.136l10.81,18.508-16.649.146Zm44.757,5.589L251.367,53.225l0.37-.219,31.31,53.763Zm2.808-33.178V73.759a9.528,9.528,0,0,1,19.055-.052v0.052A9.528,9.528,0,0,1,285.484,73.811Zm14.051,0V73.759a4.672,4.672,0,0,0-4.549-4.912,4.582,4.582,0,0,0-4.473,4.859v0.052a4.667,4.667,0,0,0,4.524,4.912A4.586,4.586,0,0,0,299.535,73.811Zm10.089-9.147H314.2l7.278,9.615V64.664h4.852V82.854h-4.3l-7.556-9.979v9.979h-4.852V64.664Zm26.691,4.418h-5.307V64.664h15.517v4.418h-5.307V82.854h-4.9V69.081Zm14.99-4.418h4.929V82.854h-4.929V64.664Zm10.086,9.147V73.759a9.216,9.216,0,0,1,9.325-9.459,8.589,8.589,0,0,1,7.506,3.794l-3.69,2.936a4.7,4.7,0,0,0-3.866-2.131c-2.476,0-4.22,2.157-4.22,4.807v0.052c0,2.729,1.744,4.86,4.22,4.86a4.8,4.8,0,0,0,3.993-2.209l3.69,2.7a8.857,8.857,0,0,1-7.835,4.106A9.112,9.112,0,0,1,361.391,73.811Zm21.586-9.147h14.229v4.288H387.83v2.754h8.491v3.976H387.83v2.885h9.5v4.288H382.977V64.664Zm19.388,0h4.9V78.437h8.567v4.418h-13.47V64.664Zm18.1,0h4.9V78.437h8.568v4.418h-13.47V64.664Zm16.481,9.147V73.759A9.528,9.528,0,0,1,456,73.707v0.052A9.528,9.528,0,0,1,436.945,73.811Zm14.051,0V73.759a4.672,4.672,0,0,0-4.549-4.912,4.582,4.582,0,0,0-4.473,4.859v0.052a4.667,4.667,0,0,0,4.524,4.912A4.586,4.586,0,0,0,451,73.811ZM266.424,78.482V72.459l4.5,7.069h0.1l4.524-7.121V82.854h4.877V64.664h-5.181l-4.22,7.042-4.22-7.042h-5.181v5.574Zm20.07,14.225h0.678v6.061h-0.678V92.707Zm5.875,0h0.636l3.786,4.857V92.707h0.661v6.061h-0.541L293.03,93.8v4.97h-0.661V92.707Zm11.811,0.631h-2.018V92.707h4.722v0.631h-2.018v5.429H304.18V93.338Zm7.414-.631h4.345V93.33h-3.666V95.4h3.279v0.623h-3.279v2.121h3.708v0.624h-4.387V92.707Zm9.191,0h2.585a2.358,2.358,0,0,1,1.708.606,1.685,1.685,0,0,1,.463,1.194v0.017a1.767,1.767,0,0,1-1.63,1.766l1.845,2.477h-0.833l-1.742-2.355h-1.717v2.355h-0.679V92.707Zm2.524,3.091a1.335,1.335,0,0,0,1.545-1.246V94.533a1.279,1.279,0,0,0-1.536-1.2h-1.854V95.8h1.845Zm7.123-3.091h0.636l3.786,4.857V92.707h0.661v6.061h-0.541l-3.881-4.97v4.97h-0.661V92.707Zm12.446-.044h0.635l2.739,6.1h-0.73l-0.7-1.6h-3.271l-0.713,1.6h-0.695Zm1.674,3.888-1.365-3.092-1.374,3.092h2.739Zm7.14-3.213h-2.018V92.707H354.4v0.631h-2.018v5.429h-0.686V93.338Zm7.475-.631h0.677v6.061h-0.677V92.707Zm5.609,3.047V95.737a3.066,3.066,0,1,1,6.13-.018v0.018A3.066,3.066,0,1,1,364.776,95.754Zm5.426,0V95.737a2.4,2.4,0,0,0-2.37-2.5,2.372,2.372,0,0,0-2.352,2.485v0.018a2.4,2.4,0,0,0,2.37,2.5A2.372,2.372,0,0,0,370.2,95.754Zm5.577-3.047h0.636l3.786,4.857V92.707h0.661v6.061h-0.541L376.44,93.8v4.97h-0.661V92.707Zm12.446-.044h0.636l2.738,6.1H390.87l-0.7-1.6H386.9l-0.713,1.6h-0.695Zm1.675,3.888-1.366-3.092-1.373,3.092H389.9Zm6.324-3.844H396.9v5.428h3.382v0.633h-4.061V92.707Zm14.5,3.047V95.737a3.03,3.03,0,0,1,3.013-3.135,3.146,3.146,0,0,1,2.24.806l-0.437.519a2.549,2.549,0,0,0-1.828-.692,2.359,2.359,0,0,0-2.285,2.485v0.018a2.334,2.334,0,0,0,2.379,2.519,2.817,2.817,0,0,0,1.734-.606V96.143h-1.828V95.529h2.48v2.415a3.621,3.621,0,0,1-2.413.926A2.959,2.959,0,0,1,410.725,95.754Zm10.436-3.047h2.585a2.358,2.358,0,0,1,1.708.606,1.682,1.682,0,0,1,.464,1.194v0.017a1.767,1.767,0,0,1-1.631,1.766l1.845,2.477H425.3l-1.742-2.355H421.84v2.355h-0.679V92.707Zm2.524,3.091a1.336,1.336,0,0,0,1.546-1.246V94.533a1.28,1.28,0,0,0-1.537-1.2H421.84V95.8h1.845Zm6.857-.044V95.737a3.065,3.065,0,1,1,6.129-.018v0.018A3.065,3.065,0,1,1,430.542,95.754Zm5.425,0V95.737a2.4,2.4,0,0,0-2.369-2.5,2.372,2.372,0,0,0-2.353,2.485v0.018a2.4,2.4,0,0,0,2.37,2.5A2.372,2.372,0,0,0,435.967,95.754Zm5.484,0.476V92.707h0.678v3.48a1.777,1.777,0,0,0,1.837,2.043,1.736,1.736,0,0,0,1.812-2V92.707h0.678v3.472A2.507,2.507,0,1,1,441.451,96.231Zm10.05-3.523h2.25A1.961,1.961,0,0,1,456,94.629v0.017a2.078,2.078,0,0,1-2.361,1.983H452.18v2.139H451.5V92.707Zm2.164,3.3a1.429,1.429,0,0,0,1.648-1.334V94.655a1.362,1.362,0,0,0-1.614-1.316H452.18V96h1.485Z" transform="translate(-215 -53)"/>
</svg>
